<?xml version="1.0" encoding="UTF-8"?>
<!DOCTYPE svg PUBLIC "-//W3C//DTD SVG 1.1//EN" "http://www.w3.org/Graphics/SVG/1.1/DTD/svg11.dtd">
<!-- Creator: CorelDRAW -->
<svg xmlns="http://www.w3.org/2000/svg" xml:space="preserve" width="40px" height="24px" version="1.1" shape-rendering="geometricPrecision" text-rendering="geometricPrecision" image-rendering="optimizeQuality" fill-rule="evenodd" clip-rule="evenodd"
viewBox="0 0 18.93 11.32"
 xmlns:xlink="http://www.w3.org/1999/xlink"
 xmlns:xodm="http://www.corel.com/coreldraw/odm/2003">
 <g id="Layer_x0020_1">
  <metadata id="CorelCorpID_0Corel-Layer"/>
  <g id="_105553311833024">
   <path fill="none" stroke="#2B2B2A" stroke-width="0.56" stroke-miterlimit="22.9256" d="M9.47 0.28c3.6,0.06 6.29,1.7 8.62,4.34 0.35,0.4 0.62,0.64 0.55,1.22 -0.04,0.38 -0.36,0.62 -0.61,0.87 -0.85,0.89 -1.68,1.7 -2.69,2.41 -1.45,1.02 -2.98,1.64 -4.74,1.86l-0.03 0.01c-0.3,0.03 -0.61,0.05 -0.91,0.06 -3.74,-0.04 -5.72,-1.62 -8.35,-4.02 -0.44,-0.41 -1.27,-0.95 -0.97,-1.66l0.01 -0.02 0.01 -0.02 0.02 -0.03c0.13,-0.26 0.46,-0.58 0.67,-0.8 1.43,-1.49 2.76,-2.65 4.68,-3.47 1.2,-0.5 2.42,-0.74 3.71,-0.75l0.03 0z"/>
   <circle fill="none" stroke="#2B2B2A" stroke-width="0.56" stroke-miterlimit="22.9256" cx="9.46" cy="4.83" r="4.46"/>
   <path fill="#2B2B2A" stroke="#2B2B2A" stroke-width="0.03" stroke-miterlimit="22.9256" d="M9.63 2.67c1.15,0.02 2.08,0.99 2.08,2.18 0,1.2 -0.95,2.18 -2.11,2.18 -1.17,0 -2.11,-0.98 -2.11,-2.18 0,-0.05 0,-0.09 0,-0.14 0.1,0.02 0.19,0.02 0.29,0.02 1.03,0 1.86,-0.83 1.86,-1.85 0,-0.07 -0.01,-0.14 -0.01,-0.21z"/>
   <path fill="none" stroke="#2B2B2A" stroke-width="0.56" stroke-miterlimit="22.9256" d="M9.47 0.28c3.6,0.06 6.29,1.7 8.62,4.34 0.35,0.4 0.62,0.64 0.55,1.22 -0.04,0.38 -0.36,0.62 -0.61,0.87 -0.85,0.89 -1.68,1.7 -2.69,2.41 -1.45,1.02 -2.98,1.64 -4.74,1.86l-0.03 0.01c-0.3,0.03 -0.61,0.05 -0.91,0.06 -3.74,-0.04 -5.72,-1.62 -8.35,-4.02 -0.44,-0.41 -1.27,-0.95 -0.97,-1.66l0.01 -0.02 0.01 -0.02 0.02 -0.03c0.13,-0.26 0.46,-0.58 0.67,-0.8 1.43,-1.49 2.76,-2.65 4.68,-3.47 1.2,-0.5 2.42,-0.74 3.71,-0.75l0.03 0z"/>
   <circle fill="none" stroke="#2B2B2A" stroke-width="0.56" stroke-miterlimit="22.9256" cx="9.46" cy="4.83" r="4.46"/>
   <path fill="#2B2B2A" stroke="#2B2B2A" stroke-width="0.03" stroke-miterlimit="22.9256" d="M9.63 2.67c1.15,0.02 2.08,0.99 2.08,2.18 0,1.2 -0.95,2.18 -2.11,2.18 -1.17,0 -2.11,-0.98 -2.11,-2.18 0,-0.05 0,-0.09 0,-0.14 0.1,0.02 0.19,0.02 0.29,0.02 1.03,0 1.86,-0.83 1.86,-1.85 0,-0.07 -0.01,-0.14 -0.01,-0.21z"/>
  </g>
 </g>
</svg>
