<?xml version="1.0" encoding="UTF-8"?>
<!DOCTYPE svg PUBLIC "-//W3C//DTD SVG 1.1//EN" "http://www.w3.org/Graphics/SVG/1.1/DTD/svg11.dtd">
<!-- Creator: CorelDRAW -->
<svg xmlns="http://www.w3.org/2000/svg" xml:space="preserve" version="1.1" shape-rendering="geometricPrecision" text-rendering="geometricPrecision" image-rendering="optimizeQuality" fill-rule="evenodd" clip-rule="evenodd"
viewBox="0 0 18.77 12.63"
 xmlns:xlink="http://www.w3.org/1999/xlink"
 xmlns:xodm="http://www.corel.com/coreldraw/odm/2003">
 <g id="Layer_x0020_1">
  <metadata id="CorelCorpID_0Corel-Layer"/>
  <g id="_105553380344384">
   <path fill="none" stroke="#2B2B2A" stroke-width="0.54" stroke-miterlimit="22.9256" d="M9.43 10.66c3.48,-0.05 6.07,-1.64 8.32,-4.19 0.34,-0.38 0.61,-0.62 0.54,-1.18 -0.05,-0.36 -0.35,-0.59 -0.59,-0.84 -0.82,-0.85 -1.63,-1.64 -2.6,-2.33 -1.41,-0.98 -2.88,-1.57 -4.58,-1.79l-0.02 0c-0.3,-0.04 -0.59,-0.06 -0.89,-0.06 -3.6,0.03 -5.51,1.56 -8.05,3.87 -0.43,0.4 -1.23,0.92 -0.94,1.6l0.01 0.03 0.01 0.02 0.01 0.02c0.13,0.25 0.45,0.57 0.66,0.78 1.37,1.44 2.66,2.55 4.51,3.34 1.16,0.49 2.34,0.72 3.59,0.73l0.02 0z"/>
   <g>
    <path fill="#2B2B2A" d="M17.74 7.33c0.41,0.63 0.43,0.72 1.03,1.06 0,-0.04 0.01,-0.03 -0.02,-0.07 -0.27,-0.42 -0.34,-0.24 -0.78,-1.1l-0.23 0.11z"/>
   </g>
   <path fill="none" d="M17.85 7.27c0.39,0.86 0.87,0.98 0.92,1.12"/>
   <g>
    <path fill="#2B2B2A" d="M1.15 7.31c-0.29,0.61 -0.57,0.7 -1.15,1.07 0.7,-0.22 1,-0.35 1.36,-0.97l-0.21 -0.1z"/>
   </g>
   <path fill="none" d="M1.26 7.36c-0.25,0.56 -0.72,0.79 -1.26,1.02"/>
   <g>
    <path fill="#2B2B2A" d="M16.93 8.07c0.05,0.17 0.33,1.35 0.74,1.13 -0.42,-0.24 -0.4,-0.72 -0.49,-1.21l-0.25 0.08z"/>
   </g>
   <path fill="none" d="M17.05 8.03c0.09,0.3 0.2,1.2 0.62,1.17"/>
   <g>
    <path fill="#2B2B2A" d="M1.94 8.13c-0.36,0.34 -0.6,0.6 -1.04,0.82 0.43,0.05 0.88,-0.39 1.2,-0.62l-0.16 -0.2z"/>
   </g>
   <path fill="none" d="M2.02 8.23c-0.27,0.21 -0.81,0.72 -1.12,0.72"/>
   <g>
    <path fill="#2B2B2A" d="M2.58 8.7c-0.22,0.41 -0.39,0.61 -0.69,0.96 0.48,-0.18 0.66,-0.43 0.95,-0.84l-0.26 -0.12z"/>
   </g>
   <path fill="none" d="M2.71 8.76c-0.1,0.22 -0.59,0.82 -0.82,0.9"/>
   <g>
    <path fill="#2B2B2A" d="M14.86 9.41c0.06,0.7 0.04,0.83 0.27,1.34 0.01,-0.04 0.01,-0.03 0.01,-0.08 -0.02,-0.4 -0.1,-0.36 -0.11,-1.26l-0.17 0z"/>
   </g>
   <path fill="none" d="M14.95 9.41c0,1.03 0.19,1.15 0.18,1.34"/>
   <g>
    <path fill="#2B2B2A" d="M3.24 9.16c-0.11,0.54 -0.08,0.91 -0.53,1.16 0.52,0.15 0.71,-0.77 0.81,-1.08l-0.28 -0.08z"/>
   </g>
   <path fill="none" d="M3.38 9.2c-0.13,0.46 -0.23,1.12 -0.67,1.12"/>
   <g>
    <path fill="#2B2B2A" d="M13.88 9.99c0.02,0.27 0.07,1.26 0.31,1.3 -0.15,-0.41 -0.14,-0.82 -0.14,-1.3l-0.17 0z"/>
   </g>
   <path fill="none" d="M13.96 9.99c0,0.33 0.06,1.18 0.23,1.3"/>
   <g>
    <path fill="#2B2B2A" d="M3.98 9.73c0.02,0.65 -0.1,0.71 -0.57,1.19 0.68,-0.29 0.82,-0.49 0.87,-1.2l-0.3 0.01z"/>
   </g>
   <path fill="none" d="M4.13 9.72c0.02,0.64 -0.23,0.92 -0.72,1.2"/>
   <g>
    <path fill="#2B2B2A" d="M12.71 10.57c0.02,0.3 0.07,1.3 0.31,1.3 -0.15,-0.42 -0.14,-0.76 -0.14,-1.3l-0.17 0z"/>
   </g>
   <path fill="none" d="M12.8 10.57c0,0.37 0.04,1.18 0.22,1.3"/>
   <g>
    <path fill="#2B2B2A" d="M4.74 10.04c-0.05,0.61 -0.13,0.79 -0.56,1.19 0.6,-0.11 0.76,-0.65 0.86,-1.19l-0.3 0z"/>
   </g>
   <path fill="none" d="M4.89 10.04c0,0.41 -0.25,1.03 -0.71,1.19"/>
   <g>
    <path fill="#2B2B2A" d="M11.55 10.93c0.05,0.88 0.05,0.89 0.22,1.66 0.02,-0.45 -0.05,-1.07 -0.05,-1.66l-0.17 0z"/>
   </g>
   <path fill="none" d="M11.63 10.93c0,1.01 0.14,1.3 0.14,1.66"/>
   <g>
    <path fill="#2B2B2A" d="M5.47 10.35c0.01,1.25 -0.39,0.72 -0.39,1.23 0.54,-0.52 0.58,-0.2 0.68,-1.23l-0.29 0z"/>
   </g>
   <path fill="none" d="M5.61 10.35c0,1.15 -0.38,0.77 -0.53,1.23"/>
   <g>
    <path fill="#2B2B2A" d="M10.38 11.07c0.02,0.64 0,0.91 0.18,1.47 -0.03,-0.57 -0.02,-0.91 -0.01,-1.47l-0.17 0z"/>
   </g>
   <path fill="none" d="M10.47 11.07c0,0.37 -0.01,1.13 0.09,1.47"/>
   <g>
    <path fill="#2B2B2A" d="M6.38 10.71c0.04,0.84 0.05,0.61 -0.44,1.16 0.69,-0.27 0.67,-0.41 0.72,-1.16l-0.28 0z"/>
   </g>
   <path fill="none" d="M6.52 10.71c0,0.77 0.02,0.75 -0.58,1.16"/>
   <g>
    <path fill="#2B2B2A" d="M9.22 11.07c0.04,1.06 -0.02,0.54 0.17,1.56 -0.03,-1.04 -0.03,-0.52 0,-1.56l-0.17 0z"/>
   </g>
   <path fill="none" d="M9.3 11.07c0,0.7 -0.02,0.87 0.09,1.56"/>
   <g>
    <path fill="#2B2B2A" d="M7.11 10.94c0.01,0.53 -0.23,0.83 -0.47,1.29 0.52,-0.37 0.75,-0.66 0.82,-1.3l-0.35 0.01z"/>
   </g>
   <path fill="none" d="M7.29 10.93c0.01,0.48 -0.32,0.97 -0.65,1.3"/>
   <g>
    <path fill="#2B2B2A" d="M8.28 11.07c0.02,0.75 -0.01,0.79 0.17,1.47 -0.02,-0.65 -0.03,-0.82 0,-1.47l-0.17 0z"/>
   </g>
   <path fill="none" d="M8.36 11.07c0,0.64 -0.02,0.82 0.09,1.47"/>
   <g>
    <path fill="#2B2B2A" d="M15.77 8.8c0.13,0.38 0.37,0.99 0.79,1.11 -0.26,-0.42 -0.37,-0.62 -0.49,-1.14l-0.3 0.03z"/>
   </g>
   <path fill="none" d="M15.92 8.79c0.04,0.29 0.41,1.01 0.64,1.12"/>
  </g>
 </g>
</svg>
