<?xml version="1.0" encoding="UTF-8"?>
<!DOCTYPE svg PUBLIC "-//W3C//DTD SVG 1.1//EN" "http://www.w3.org/Graphics/SVG/1.1/DTD/svg11.dtd">
<!-- Creator: CorelDRAW -->
<svg xmlns="http://www.w3.org/2000/svg" xml:space="preserve"  version="1.1" shape-rendering="geometricPrecision" text-rendering="geometricPrecision" image-rendering="optimizeQuality" fill-rule="evenodd" clip-rule="evenodd"
viewBox="0 0 18.5 12.06"
 xmlns:xlink="http://www.w3.org/1999/xlink"
 xmlns:xodm="http://www.corel.com/coreldraw/odm/2003">
 <g id="Layer_x0020_1">
  <metadata id="CorelCorpID_0Corel-Layer"/>
  <g id="_105553239514400">
   <path fill="none" stroke="#2B2B2A" stroke-width="0.54" stroke-miterlimit="22.9256" d="M9.26 1.27c3.52,0.06 6.14,1.66 8.42,4.24 0.34,0.39 0.61,0.63 0.54,1.2 -0.05,0.36 -0.36,0.6 -0.59,0.85 -0.84,0.86 -1.65,1.66 -2.64,2.35 -1.42,1 -2.91,1.6 -4.63,1.82l-0.03 0c-0.29,0.04 -0.59,0.06 -0.89,0.06 -3.65,-0.03 -5.59,-1.58 -8.16,-3.92 -0.43,-0.4 -1.24,-0.93 -0.94,-1.62l0.01 -0.02 0.01 -0.03 0.01 -0.02c0.12,-0.25 0.46,-0.57 0.66,-0.78 1.39,-1.46 2.69,-2.59 4.57,-3.39 1.17,-0.49 2.36,-0.73 3.63,-0.74l0.03 0z"/>
   <circle fill="none" stroke="#2B2B2A" stroke-width="0.54" stroke-miterlimit="22.9256" cx="9.25" cy="5.71" r="4.35"/>
   <path fill="#2B2B2A" stroke="#2B2B2A" stroke-width="0.03" stroke-miterlimit="22.9256" d="M9.41 3.61c1.12,0.01 2.03,0.96 2.03,2.13 0,1.17 -0.92,2.13 -2.06,2.13 -1.14,0 -2.06,-0.96 -2.06,-2.13 0,-0.05 0,-0.09 0,-0.14 0.09,0.02 0.19,0.02 0.29,0.02 1,0 1.81,-0.81 1.81,-1.81 0,-0.07 0,-0.14 -0.01,-0.2z"/>
   <path fill="none" stroke="#2B2B2A" stroke-width="0.54" stroke-miterlimit="22.9256" d="M9.26 1.27c3.52,0.06 6.14,1.66 8.42,4.24 0.34,0.39 0.61,0.63 0.54,1.2 -0.05,0.36 -0.36,0.6 -0.59,0.85 -0.84,0.86 -1.65,1.66 -2.64,2.35 -1.42,1 -2.91,1.6 -4.63,1.82l-0.03 0c-0.29,0.04 -0.59,0.06 -0.89,0.06 -3.65,-0.03 -5.59,-1.58 -8.16,-3.92 -0.43,-0.4 -1.24,-0.93 -0.94,-1.62l0.01 -0.02 0.01 -0.03 0.01 -0.02c0.12,-0.25 0.46,-0.57 0.66,-0.78 1.39,-1.46 2.69,-2.59 4.57,-3.39 1.17,-0.49 2.36,-0.73 3.63,-0.74l0.03 0z"/>
   <circle fill="none" stroke="#2B2B2A" stroke-width="0.54" stroke-miterlimit="22.9256" cx="9.25" cy="5.71" r="4.35"/>
   <path fill="#2B2B2A" stroke="#2B2B2A" stroke-width="0.03" stroke-miterlimit="22.9256" d="M9.41 3.61c1.12,0.01 2.03,0.96 2.03,2.13 0,1.17 -0.92,2.13 -2.06,2.13 -1.14,0 -2.06,-0.96 -2.06,-2.13 0,-0.05 0,-0.09 0,-0.14 0.09,0.02 0.19,0.02 0.29,0.02 1,0 1.81,-0.81 1.81,-1.81 0,-0.07 0,-0.14 -0.01,-0.2z"/>
   <g>
    <path fill="#2B2B2A" d="M17.66 4.68c0.29,-0.44 0.3,-0.49 0.72,-0.73 0,0.03 0,0.02 -0.02,0.05 -0.19,0.28 -0.23,0.16 -0.54,0.75l-0.16 -0.07z"/>
   </g>
   <path fill="none" d="M17.74 4.72c0.27,-0.59 0.6,-0.67 0.64,-0.77"/>
   <g>
    <path fill="#2B2B2A" d="M0.93 4.66c-0.23,-0.46 -0.44,-0.53 -0.88,-0.8 0.53,0.16 0.76,0.26 1.04,0.73l-0.16 0.07z"/>
   </g>
   <path fill="none" d="M1.01 4.63c-0.19,-0.43 -0.55,-0.6 -0.96,-0.77"/>
   <g>
    <path fill="#2B2B2A" d="M16.84 3.92c0.04,-0.11 0.23,-0.89 0.49,-0.75 -0.27,0.16 -0.26,0.48 -0.32,0.8l-0.17 -0.05z"/>
   </g>
   <path fill="none" d="M16.93 3.95c0.06,-0.2 0.12,-0.8 0.4,-0.78"/>
   <g>
    <path fill="#2B2B2A" d="M1.72 3.83c-0.25,-0.23 -0.41,-0.41 -0.71,-0.56 0.29,-0.04 0.6,0.26 0.82,0.43l-0.11 0.13z"/>
   </g>
   <path fill="none" d="M1.78 3.76c-0.19,-0.14 -0.56,-0.49 -0.77,-0.49"/>
   <g>
    <path fill="#2B2B2A" d="M2.43 3.26c-0.14,-0.25 -0.24,-0.38 -0.43,-0.58 0.3,0.1 0.41,0.25 0.58,0.5l-0.15 0.08z"/>
   </g>
   <path fill="none" d="M2.5 3.22c-0.06,-0.13 -0.36,-0.5 -0.5,-0.54"/>
   <g>
    <path fill="#2B2B2A" d="M14.75 2.54c0.06,-0.4 0.05,-0.48 0.27,-0.77 0.02,0.02 0.02,0.02 0.01,0.05 -0.02,0.23 -0.09,0.2 -0.1,0.72l-0.18 0z"/>
   </g>
   <path fill="none" d="M14.84 2.54c0,-0.59 0.19,-0.66 0.18,-0.77"/>
   <g>
    <path fill="#2B2B2A" d="M3.1 2.79c-0.07,-0.33 -0.05,-0.55 -0.32,-0.7 0.31,-0.1 0.43,0.47 0.49,0.65l-0.17 0.05z"/>
   </g>
   <path fill="none" d="M3.18 2.77c-0.08,-0.29 -0.13,-0.68 -0.4,-0.68"/>
   <g>
    <path fill="#2B2B2A" d="M13.76 1.95c0.01,-0.16 0.07,-0.75 0.31,-0.77 -0.15,0.24 -0.14,0.49 -0.14,0.77l-0.17 0z"/>
   </g>
   <path fill="none" d="M13.84 1.95c0,-0.19 0.06,-0.7 0.23,-0.77"/>
   <g>
    <path fill="#2B2B2A" d="M3.87 2.22c0.01,-0.37 -0.06,-0.41 -0.32,-0.68 0.38,0.16 0.46,0.28 0.49,0.69l-0.17 -0.01z"/>
   </g>
   <path fill="none" d="M3.95 2.22c0.02,-0.36 -0.12,-0.52 -0.4,-0.68"/>
   <g>
    <path fill="#2B2B2A" d="M12.58 1.36c0.01,-0.15 0.06,-0.68 0.31,-0.68 -0.16,0.22 -0.14,0.4 -0.14,0.68l-0.17 0z"/>
   </g>
   <path fill="none" d="M12.66 1.36c0,-0.19 0.05,-0.62 0.23,-0.68"/>
   <g>
    <path fill="#2B2B2A" d="M4.64 1.9c-0.03,-0.35 -0.08,-0.45 -0.32,-0.68 0.34,0.07 0.43,0.37 0.49,0.68l-0.17 0z"/>
   </g>
   <path fill="none" d="M4.73 1.9c0,-0.23 -0.15,-0.58 -0.41,-0.68"/>
   <g>
    <path fill="#2B2B2A" d="M11.4 1c0.05,-0.46 0.05,-0.47 0.22,-0.86 0.02,0.23 -0.05,0.55 -0.05,0.86l-0.17 0z"/>
   </g>
   <path fill="none" d="M11.48 1c0,-0.53 0.14,-0.68 0.14,-0.86"/>
   <g>
    <path fill="#2B2B2A" d="M5.37 1.59c0,-0.74 -0.23,-0.43 -0.24,-0.73 0.33,0.31 0.35,0.12 0.41,0.73l-0.17 0z"/>
   </g>
   <path fill="none" d="M5.45 1.59c0,-0.68 -0.22,-0.46 -0.32,-0.73"/>
   <g>
    <path fill="#2B2B2A" d="M10.22 0.86c0.02,-0.35 0,-0.5 0.18,-0.81 -0.03,0.31 -0.03,0.5 -0.01,0.81l-0.17 0z"/>
   </g>
   <path fill="none" d="M10.3 0.86c0,-0.21 -0.01,-0.62 0.1,-0.81"/>
   <g>
    <path fill="#2B2B2A" d="M6.27 1.22c0.03,-0.52 0.03,-0.38 -0.27,-0.72 0.43,0.17 0.41,0.25 0.44,0.72l-0.17 0z"/>
   </g>
   <path fill="none" d="M6.36 1.22c0,-0.48 0.01,-0.46 -0.36,-0.72"/>
   <g>
    <path fill="#2B2B2A" d="M9.04 0.86c0.04,-0.59 -0.02,-0.3 0.18,-0.86 -0.04,0.58 -0.04,0.29 -0.01,0.86l-0.17 0z"/>
   </g>
   <path fill="none" d="M9.13 0.86c0,-0.39 -0.03,-0.48 0.09,-0.86"/>
   <g>
    <path fill="#2B2B2A" d="M7.09 1c0,-0.27 -0.11,-0.41 -0.23,-0.64 0.25,0.19 0.37,0.33 0.4,0.64l-0.17 0z"/>
   </g>
   <path fill="none" d="M7.18 1c0,-0.24 -0.16,-0.47 -0.32,-0.64"/>
   <g>
    <path fill="#2B2B2A" d="M8.09 0.86c0.02,-0.39 -0.01,-0.41 0.17,-0.77 -0.02,0.34 -0.02,0.43 0,0.77l-0.17 0z"/>
   </g>
   <path fill="none" d="M8.17 0.86c0,-0.33 -0.02,-0.43 0.09,-0.77"/>
   <g>
    <path fill="#2B2B2A" d="M15.68 3.17c0.07,-0.22 0.2,-0.56 0.44,-0.63 -0.15,0.24 -0.21,0.35 -0.27,0.64l-0.17 -0.01z"/>
   </g>
   <path fill="none" d="M15.76 3.17c0.02,-0.16 0.23,-0.57 0.36,-0.63"/>
  </g>
 </g>
</svg>
