<?xml version="1.0" encoding="UTF-8"?>
<!DOCTYPE svg PUBLIC "-//W3C//DTD SVG 1.1//EN" "http://www.w3.org/Graphics/SVG/1.1/DTD/svg11.dtd">
<!-- Creator: CorelDRAW -->
<svg xmlns="http://www.w3.org/2000/svg" xml:space="preserve" version="1.1" shape-rendering="geometricPrecision" text-rendering="geometricPrecision" image-rendering="optimizeQuality" fill-rule="evenodd" clip-rule="evenodd"
viewBox="0 0 18.55 12.09"
 xmlns:xlink="http://www.w3.org/1999/xlink"
 xmlns:xodm="http://www.corel.com/coreldraw/odm/2003">
 <g id="Layer_x0020_1">
  <metadata id="CorelCorpID_0Corel-Layer"/>
  <g id="_105553239128928">
   <path fill="none" stroke="#2B2B2A" stroke-width="0.55" stroke-miterlimit="22.9256" d="M9.28 10.82c3.53,-0.06 6.15,-1.67 8.44,-4.25 0.35,-0.39 0.61,-0.63 0.54,-1.2 -0.04,-0.37 -0.35,-0.6 -0.59,-0.85 -0.84,-0.87 -1.66,-1.67 -2.65,-2.36 -1.42,-1 -2.91,-1.6 -4.64,-1.83l-0.02 0c-0.3,-0.03 -0.6,-0.05 -0.9,-0.06 -3.66,0.04 -5.6,1.59 -8.17,3.94 -0.44,0.4 -1.25,0.92 -0.95,1.62l0.01 0.02 0.01 0.02 0.01 0.03c0.13,0.25 0.46,0.57 0.66,0.78 1.4,1.47 2.7,2.6 4.58,3.4 1.18,0.49 2.37,0.73 3.64,0.74l0.03 0z"/>
   <g>
    <path fill="#2B2B2A" d="M17.7 7.4c0.29,0.44 0.3,0.5 0.72,0.74 0,-0.03 0,-0.03 -0.01,-0.05 -0.19,-0.29 -0.24,-0.17 -0.55,-0.76l-0.16 0.07z"/>
   </g>
   <path fill="none" d="M17.78 7.36c0.27,0.59 0.6,0.68 0.64,0.78"/>
   <g>
    <path fill="#2B2B2A" d="M0.93 7.42c-0.22,0.46 -0.44,0.53 -0.88,0.81 0.53,-0.16 0.76,-0.27 1.04,-0.74l-0.16 -0.07z"/>
   </g>
   <path fill="none" d="M1.01 7.46c-0.19,0.42 -0.55,0.59 -0.96,0.77"/>
   <g>
    <path fill="#2B2B2A" d="M16.88 8.16c0.04,0.11 0.22,0.9 0.49,0.75 -0.27,-0.16 -0.26,-0.47 -0.32,-0.8l-0.17 0.05z"/>
   </g>
   <path fill="none" d="M16.96 8.14c0.07,0.19 0.13,0.79 0.41,0.77"/>
   <g>
    <path fill="#2B2B2A" d="M1.73 8.25c-0.26,0.23 -0.42,0.41 -0.72,0.57 0.29,0.03 0.61,-0.27 0.83,-0.43l-0.11 -0.14z"/>
   </g>
   <path fill="none" d="M1.78 8.32c-0.18,0.15 -0.56,0.5 -0.77,0.5"/>
   <g>
    <path fill="#2B2B2A" d="M2.43 8.83c-0.13,0.25 -0.24,0.37 -0.42,0.58 0.29,-0.11 0.4,-0.26 0.58,-0.51l-0.16 -0.07z"/>
   </g>
   <path fill="none" d="M2.51 8.86c-0.06,0.14 -0.36,0.5 -0.5,0.55"/>
   <g>
    <path fill="#2B2B2A" d="M14.79 9.55c0.06,0.4 0.04,0.47 0.27,0.77 0.01,-0.03 0.01,-0.02 0.01,-0.05 -0.02,-0.23 -0.1,-0.2 -0.11,-0.72l-0.17 0z"/>
   </g>
   <path fill="none" d="M14.87 9.55c0,0.59 0.19,0.66 0.19,0.77"/>
   <g>
    <path fill="#2B2B2A" d="M3.11 9.3c-0.07,0.32 -0.05,0.55 -0.33,0.7 0.32,0.1 0.43,-0.47 0.49,-0.66l-0.16 -0.04z"/>
   </g>
   <path fill="none" d="M3.19 9.32c-0.08,0.28 -0.14,0.68 -0.41,0.68"/>
   <g>
    <path fill="#2B2B2A" d="M13.79 10.14c0.02,0.16 0.07,0.75 0.31,0.77 -0.15,-0.24 -0.14,-0.49 -0.14,-0.77l-0.17 0z"/>
   </g>
   <path fill="none" d="M13.87 10.14c0,0.19 0.06,0.7 0.23,0.77"/>
   <g>
    <path fill="#2B2B2A" d="M3.88 9.87c0.01,0.37 -0.06,0.41 -0.33,0.68 0.39,-0.17 0.47,-0.28 0.5,-0.69l-0.17 0.01z"/>
   </g>
   <path fill="none" d="M3.96 9.86c0.02,0.37 -0.13,0.53 -0.41,0.69"/>
   <g>
    <path fill="#2B2B2A" d="M12.61 10.73c0.01,0.15 0.06,0.68 0.31,0.68 -0.16,-0.22 -0.14,-0.4 -0.14,-0.68l-0.17 0z"/>
   </g>
   <path fill="none" d="M12.69 10.73c0,0.19 0.05,0.62 0.23,0.68"/>
   <g>
    <path fill="#2B2B2A" d="M4.65 10.18c-0.03,0.35 -0.08,0.46 -0.32,0.68 0.34,-0.06 0.43,-0.37 0.49,-0.68l-0.17 0z"/>
   </g>
   <path fill="none" d="M4.74 10.18c0,0.24 -0.15,0.59 -0.41,0.68"/>
   <g>
    <path fill="#2B2B2A" d="M11.42 11.09c0.06,0.46 0.06,0.47 0.23,0.87 0.02,-0.24 -0.05,-0.56 -0.05,-0.87l-0.18 0z"/>
   </g>
   <path fill="none" d="M11.51 11.09c0,0.53 0.14,0.68 0.14,0.87"/>
   <g>
    <path fill="#2B2B2A" d="M5.38 10.5c0.01,0.74 -0.23,0.43 -0.23,0.73 0.32,-0.31 0.34,-0.12 0.4,-0.73l-0.17 0z"/>
   </g>
   <path fill="none" d="M5.46 10.5c0,0.68 -0.22,0.46 -0.31,0.73"/>
   <g>
    <path fill="#2B2B2A" d="M10.24 11.23c0.02,0.35 0,0.5 0.18,0.82 -0.03,-0.32 -0.02,-0.51 -0.01,-0.82l-0.17 0z"/>
   </g>
   <path fill="none" d="M10.33 11.23c0,0.21 -0.01,0.63 0.09,0.82"/>
   <g>
    <path fill="#2B2B2A" d="M6.29 10.86c0.02,0.53 0.03,0.39 -0.28,0.73 0.43,-0.17 0.42,-0.25 0.45,-0.73l-0.17 0z"/>
   </g>
   <path fill="none" d="M6.37 10.86c0,0.49 0.02,0.47 -0.36,0.73"/>
   <g>
    <path fill="#2B2B2A" d="M9.06 11.23c0.04,0.59 -0.02,0.3 0.18,0.86 -0.04,-0.57 -0.04,-0.29 -0.01,-0.86l-0.17 0z"/>
   </g>
   <path fill="none" d="M9.15 11.23c0,0.39 -0.03,0.48 0.09,0.86"/>
   <g>
    <path fill="#2B2B2A" d="M7.11 11.09c0,0.27 -0.12,0.41 -0.24,0.64 0.26,-0.18 0.37,-0.33 0.41,-0.64l-0.17 0z"/>
   </g>
   <path fill="none" d="M7.19 11.09c0.01,0.24 -0.15,0.47 -0.32,0.64"/>
   <g>
    <path fill="#2B2B2A" d="M8.11 11.23c0.02,0.39 -0.01,0.41 0.17,0.77 -0.02,-0.34 -0.03,-0.43 0,-0.77l-0.17 0z"/>
   </g>
   <path fill="none" d="M8.19 11.23c0,0.34 -0.02,0.43 0.09,0.77"/>
   <g>
    <path fill="#2B2B2A" d="M15.71 8.92c0.07,0.21 0.21,0.56 0.45,0.63 -0.15,-0.24 -0.21,-0.35 -0.28,-0.65l-0.17 0.02z"/>
   </g>
   <path fill="none" d="M15.8 8.91c0.01,0.17 0.23,0.57 0.36,0.64"/>
  </g>
 </g>
</svg>
