<?xml version="1.0" encoding="UTF-8"?>
<!DOCTYPE svg PUBLIC "-//W3C//DTD SVG 1.1//EN" "http://www.w3.org/Graphics/SVG/1.1/DTD/svg11.dtd">
<!-- Creator: CorelDRAW -->
<svg xmlns="http://www.w3.org/2000/svg" xml:space="preserve" width="40px" height="27px" version="1.1" shape-rendering="geometricPrecision" text-rendering="geometricPrecision" image-rendering="optimizeQuality" fill-rule="evenodd" clip-rule="evenodd"
viewBox="0 0 20.55 13.91"
 xmlns:xlink="http://www.w3.org/1999/xlink"
 xmlns:xodm="http://www.corel.com/coreldraw/odm/2003">
 <g id="Layer_x0020_1">
  <metadata id="CorelCorpID_0Corel-Layer"/>
  <g id="_105553311855712">
   <rect fill="#2B2B2A" stroke="#2B2B2A" stroke-width="0.03" stroke-miterlimit="22.9256" transform="matrix(0.574809 -8.64862E-001 1.13983 0.757562 -3.1422E-002 0.452216)" width="0.56" height="17.8" rx="0.11" ry="0.11"/>
   <path fill="none" stroke="#2B2B2A" stroke-width="0.56" stroke-miterlimit="22.9256" d="M5.92 2.54c0.18,-0.08 0.36,-0.17 0.55,-0.25 1.2,-0.5 2.42,-0.75 3.72,-0.76l0.03 0c3.62,0.06 6.31,1.71 8.65,4.36 0.36,0.4 0.63,0.65 0.56,1.23 -0.05,0.38 -0.37,0.62 -0.61,0.87 -0.64,0.67 -1.26,1.28 -1.96,1.85"/>
   <path fill="none" stroke="#2B2B2A" stroke-width="0.56" stroke-miterlimit="22.9256" d="M6.94 3.16c0.82,-0.94 2.02,-1.53 3.36,-1.53 2.48,0 4.48,2 4.48,4.47 0,0.71 -0.17,1.38 -0.46,1.98"/>
   <path fill="none" stroke="#2B2B2A" stroke-width="0.56" stroke-miterlimit="22.9256" d="M14.56 11.33c-1,0.49 -2.05,0.8 -3.21,0.95l-0.02 0.01c-0.31,0.03 -0.61,0.05 -0.92,0.06 -3.75,-0.04 -5.74,-1.63 -8.38,-4.04 -0.45,-0.41 -1.28,-0.95 -0.97,-1.66l0.01 -0.02 0.01 -0.03 0.01 -0.02c0.13,-0.26 0.47,-0.59 0.68,-0.81 0.61,-0.64 1.21,-1.22 1.85,-1.74"/>
   <path fill="none" stroke="#2B2B2A" stroke-width="0.56" stroke-miterlimit="22.9256" d="M12.49 9.95c-0.67,0.4 -1.45,0.63 -2.28,0.63 -2.47,0 -4.47,-2.01 -4.47,-4.48 0,-0.21 0.01,-0.42 0.04,-0.63"/>
   <path fill="#2B2B2A" stroke="#2B2B2A" stroke-width="0.14" stroke-miterlimit="22.9256" d="M9.91 4.07c1.16,0.02 2.09,1 2.09,2.19 0,0.14 -0.01,0.26 -0.03,0.39l-2.26 -1.5c0.14,-0.26 0.21,-0.55 0.21,-0.87 0,-0.07 0,-0.14 -0.01,-0.21z"/>
  </g>
 </g>
</svg>
