<?xml version="1.0" encoding="UTF-8"?>
<!DOCTYPE svg PUBLIC "-//W3C//DTD SVG 1.1//EN" "http://www.w3.org/Graphics/SVG/1.1/DTD/svg11.dtd">
<!-- Creator: CorelDRAW -->
<svg xmlns="http://www.w3.org/2000/svg" xml:space="preserve" width="40px" height="27px" version="1.1" shape-rendering="geometricPrecision" text-rendering="geometricPrecision" image-rendering="optimizeQuality" fill-rule="evenodd" clip-rule="evenodd"
viewBox="0 0 18.77 12.63"
 xmlns:xlink="http://www.w3.org/1999/xlink"
 xmlns:xodm="http://www.corel.com/coreldraw/odm/2003">
 <g id="Layer_x0020_1">
  <metadata id="CorelCorpID_0Corel-Layer"/>
  <path fill="none" stroke="#2B2B2A" stroke-width="0.54" stroke-miterlimit="22.9256" d="M9.43 1.97c3.48,0.06 6.07,1.64 8.32,4.19 0.34,0.39 0.61,0.62 0.54,1.18 -0.05,0.36 -0.35,0.6 -0.59,0.84 -0.82,0.86 -1.63,1.64 -2.6,2.33 -1.41,0.98 -2.88,1.58 -4.58,1.79l-0.02 0.01c-0.3,0.03 -0.59,0.05 -0.89,0.05 -3.6,-0.03 -5.51,-1.56 -8.05,-3.87 -0.43,-0.4 -1.23,-0.92 -0.94,-1.6l0.01 -0.02 0.01 -0.02 0.01 -0.03c0.13,-0.25 0.45,-0.56 0.66,-0.77 1.37,-1.45 2.66,-2.56 4.51,-3.35 1.16,-0.48 2.34,-0.72 3.59,-0.73l0.02 0z"/>
  <g id="_105553380752352">
   <path fill="#2B2B2A" d="M17.74 5.31c0.41,-0.64 0.43,-0.72 1.03,-1.07 0,0.04 0.01,0.03 -0.02,0.07 -0.27,0.42 -0.34,0.24 -0.78,1.1l-0.23 -0.1z"/>
  </g>
  <path fill="none" d="M17.85 5.36c0.39,-0.85 0.87,-0.97 0.92,-1.12"/>
  <g id="_105553380728576">
   <path fill="#2B2B2A" d="M1.15 5.32c-0.29,-0.6 -0.57,-0.7 -1.15,-1.06 0.7,0.21 1,0.34 1.36,0.97l-0.21 0.09z"/>
  </g>
  <path fill="none" d="M1.26 5.27c-0.25,-0.55 -0.72,-0.78 -1.26,-1.01"/>
  <g id="_105553380732128">
   <path fill="#2B2B2A" d="M16.93 4.56c0.05,-0.17 0.33,-1.35 0.74,-1.12 -0.42,0.23 -0.4,0.71 -0.49,1.2l-0.25 -0.08z"/>
  </g>
  <path fill="none" d="M17.05 4.6c0.09,-0.3 0.2,-1.2 0.62,-1.16"/>
  <g id="_105553380689568">
   <path fill="#2B2B2A" d="M1.94 4.5c-0.36,-0.34 -0.6,-0.59 -1.04,-0.82 0.43,-0.05 0.88,0.39 1.2,0.63l-0.16 0.19z"/>
  </g>
  <path fill="none" d="M2.02 4.4c-0.27,-0.21 -0.81,-0.72 -1.12,-0.72"/>
  <g id="_105553380688800">
   <path fill="#2B2B2A" d="M2.58 3.93c-0.22,-0.4 -0.39,-0.61 -0.69,-0.95 0.48,0.18 0.66,0.42 0.95,0.84l-0.26 0.11z"/>
  </g>
  <path fill="none" d="M2.71 3.87c-0.1,-0.22 -0.59,-0.81 -0.82,-0.89"/>
  <g id="_105553380656928">
   <path fill="#2B2B2A" d="M14.86 3.23c0.06,-0.71 0.04,-0.83 0.27,-1.35 0.01,0.04 0.01,0.03 0.01,0.08 -0.02,0.41 -0.1,0.36 -0.11,1.27l-0.17 0z"/>
  </g>
  <path fill="none" d="M14.95 3.23c0,-1.03 0.19,-1.16 0.18,-1.35"/>
  <g id="_105553381017152">
   <path fill="#2B2B2A" d="M3.24 3.47c-0.11,-0.54 -0.08,-0.9 -0.53,-1.16 0.52,-0.15 0.71,0.78 0.81,1.09l-0.28 0.07z"/>
  </g>
  <path fill="none" d="M3.38 3.43c-0.13,-0.46 -0.23,-1.12 -0.67,-1.12"/>
  <g id="_105553381030976">
   <path fill="#2B2B2A" d="M13.88 2.64c0.02,-0.26 0.07,-1.25 0.31,-1.3 -0.15,0.41 -0.14,0.83 -0.14,1.3l-0.17 0z"/>
  </g>
  <path fill="none" d="M13.96 2.64c0,-0.32 0.06,-1.18 0.23,-1.3"/>
  <g id="_105553381016896">
   <path fill="#2B2B2A" d="M3.98 2.91c0.02,-0.65 -0.1,-0.72 -0.57,-1.19 0.68,0.28 0.82,0.48 0.87,1.19l-0.3 0z"/>
  </g>
  <path fill="none" d="M4.13 2.91c0.02,-0.64 -0.23,-0.91 -0.72,-1.19"/>
  <g id="_105553381030336">
   <path fill="#2B2B2A" d="M12.71 2.06c0.02,-0.29 0.07,-1.3 0.31,-1.3 -0.15,0.43 -0.14,0.77 -0.14,1.3l-0.17 0z"/>
  </g>
  <path fill="none" d="M12.8 2.06c0,-0.37 0.04,-1.18 0.22,-1.3"/>
  <g id="_105553381016992">
   <path fill="#2B2B2A" d="M4.74 2.6c-0.05,-0.62 -0.13,-0.8 -0.56,-1.2 0.6,0.11 0.76,0.65 0.86,1.2l-0.3 0z"/>
  </g>
  <path fill="none" d="M4.89 2.6c0,-0.42 -0.25,-1.04 -0.71,-1.2"/>
  <g id="_105553380527712">
   <path fill="#2B2B2A" d="M11.55 1.7c0.05,-0.87 0.05,-0.89 0.22,-1.66 0.02,0.45 -0.05,1.07 -0.05,1.66l-0.17 0z"/>
  </g>
  <path fill="none" d="M11.63 1.7c0,-1.01 0.14,-1.29 0.14,-1.66"/>
  <g id="_105553380521568">
   <path fill="#2B2B2A" d="M5.47 2.28c0.01,-1.25 -0.39,-0.71 -0.39,-1.22 0.54,0.51 0.58,0.19 0.68,1.22l-0.29 0z"/>
  </g>
  <path fill="none" d="M5.61 2.28c0,-1.14 -0.38,-0.77 -0.53,-1.22"/>
  <g id="_105553380564672">
   <path fill="#2B2B2A" d="M10.38 1.57c0.02,-0.65 0,-0.91 0.18,-1.48 -0.03,0.57 -0.02,0.91 -0.01,1.48l-0.17 0z"/>
  </g>
  <path fill="none" d="M10.47 1.57c0,-0.38 -0.01,-1.14 0.09,-1.48"/>
  <g id="_105553380569632">
   <path fill="#2B2B2A" d="M6.38 1.93c0.04,-0.85 0.05,-0.62 -0.44,-1.17 0.69,0.27 0.67,0.41 0.72,1.17l-0.28 0z"/>
  </g>
  <path fill="none" d="M6.52 1.93c0,-0.78 0.02,-0.75 -0.58,-1.17"/>
  <g id="_105553380629632">
   <path fill="#2B2B2A" d="M9.22 1.57c0.04,-1.07 -0.02,-0.55 0.17,-1.57 -0.03,1.05 -0.03,0.52 0,1.57l-0.17 0z"/>
  </g>
  <path fill="none" d="M9.3 1.57c0,-0.71 -0.02,-0.88 0.09,-1.57"/>
  <g id="_105553380638016">
   <path fill="#2B2B2A" d="M7.11 1.69c0.01,-0.53 -0.23,-0.83 -0.47,-1.29 0.52,0.37 0.75,0.67 0.82,1.31l-0.35 -0.02z"/>
  </g>
  <path fill="none" d="M7.29 1.7c0.01,-0.48 -0.32,-0.96 -0.65,-1.3"/>
  <g id="_105553380628800">
   <path fill="#2B2B2A" d="M8.28 1.57c0.02,-0.76 -0.01,-0.8 0.17,-1.48 -0.02,0.66 -0.03,0.82 0,1.48l-0.17 0z"/>
  </g>
  <path fill="none" d="M8.36 1.57c0,-0.65 -0.02,-0.83 0.09,-1.48"/>
  <g id="_105553380975168">
   <path fill="#2B2B2A" d="M15.77 3.83c0.13,-0.37 0.37,-0.98 0.79,-1.1 -0.26,0.42 -0.37,0.61 -0.49,1.13l-0.3 -0.03z"/>
  </g>
  <path fill="none" d="M15.92 3.85c0.04,-0.3 0.41,-1.01 0.64,-1.12"/>
  <circle fill="none" stroke="#2B2B2A" stroke-width="0.54" stroke-miterlimit="22.9256" cx="9.47" cy="6.41" r="4.3"/>
  <path fill="#2B2B2A" stroke="#2B2B2A" stroke-width="0.03" stroke-miterlimit="22.9256" d="M9.63 4.32c1.11,0.02 2.01,0.96 2.01,2.11 0,1.16 -0.92,2.1 -2.04,2.1 -1.13,0 -2.04,-0.94 -2.04,-2.1 0,-0.05 0,-0.09 0,-0.14 0.1,0.02 0.19,0.03 0.29,0.03 0.99,0 1.79,-0.81 1.79,-1.8 0,-0.06 0,-0.13 -0.01,-0.2z"/>
 </g>
</svg>
